# xmcd CD database file
#
# Track frame offsets:
#	150
#	11777
#	23247
#	34257
#	44595
#	55217
#	68805
#	83180
#	91517
#	102455
#	111615
#	125910
#	135410
#	145892
#	157245
#	168017
#	181187
#	191220
#
# Disc length: 2708 seconds
#
# Revision: 0
# Processed by: cddbd v1.5.2PL0 Copyright (c) Steve Scherf et al.
# Submitted via: CDex 1.51
#
DISCID=030a9212
DTITLE=Ultra-Lounge Vol. 2 - Mambo Fever
DYEAR=1900
DGENRE=Jazz
TTITLE0=Hooray For Hollywood
TTITLE1=Manana
TTITLE2=Peter Gunn Mambo
TTITLE3=Chihuahua
TTITLE4=I Can´t Believe That You´e In Love With Me
TTITLE5=Mambo Jambo
TTITLE6=Cumana
TTITLE7=Taki Rari
TTITLE8=Way Down Yonder In New Orleans Mambo
TTITLE9=El Cumbanchero
TTITLE10=Oink, Oink Mambo
TTITLE11=Diga Diga Doo
TTITLE12=Hernand´s Hideaway
TTITLE13=Tico Tico
TTITLE14=Glow Warm Cha Cha Cha
TTITLE15=Malambo #1
TTITLE16=Can-Can Overture
TTITLE17=Oye Negra
EXTD=
EXTT0=
EXTT1=
EXTT2=
EXTT3=
EXTT4=
EXTT5=
EXTT6=
EXTT7=
EXTT8=
EXTT9=
EXTT10=
EXTT11=
EXTT12=
EXTT13=
EXTT14=
EXTT15=
EXTT16=
EXTT17=
PLAYORDER=
